<svg id="visual" viewBox="0 0 2560 1440" width="2560" height="1440" xmlns="http://www.w3.org/2000/svg" xmlns:xlink="http://www.w3.org/1999/xlink" version="1.1"><path d="M0 145L38.8 159.3C77.7 173.7 155.3 202.3 232.8 216.7C310.3 231 387.7 231 465.2 216.7C542.7 202.3 620.3 173.7 698 171.3C775.7 169 853.3 193 931 219.3C1008.7 245.7 1086.3 274.3 1163.8 269.5C1241.3 264.7 1318.7 226.3 1396.2 209.7C1473.7 193 1551.3 198 1629 207.7C1706.7 217.3 1784.3 231.7 1862 214.8C1939.7 198 2017.3 150 2094.8 145.2C2172.3 140.3 2249.7 178.7 2327.2 181C2404.7 183.3 2482.3 149.7 2521.2 132.8L2560 116L2560 0L2521.2 0C2482.3 0 2404.7 0 2327.2 0C2249.7 0 2172.3 0 2094.8 0C2017.3 0 1939.7 0 1862 0C1784.3 0 1706.7 0 1629 0C1551.3 0 1473.7 0 1396.2 0C1318.7 0 1241.3 0 1163.8 0C1086.3 0 1008.7 0 931 0C853.3 0 775.7 0 698 0C620.3 0 542.7 0 465.2 0C387.7 0 310.3 0 232.8 0C155.3 0 77.7 0 38.8 0L0 0Z" fill="#10281c"></path><path d="M0 318L38.8 327.5C77.7 337 155.3 356 232.8 392C310.3 428 387.7 481 465.2 485.8C542.7 490.7 620.3 447.3 698 437.7C775.7 428 853.3 452 931 495.2C1008.7 538.3 1086.3 600.7 1163.8 593.5C1241.3 586.3 1318.7 509.7 1396.2 457C1473.7 404.3 1551.3 375.7 1629 382.8C1706.7 390 1784.3 433 1862 445C1939.7 457 2017.3 438 2094.8 452.5C2172.3 467 2249.7 515 2327.2 510.2C2404.7 505.3 2482.3 447.7 2521.2 418.8L2560 390L2560 114L2521.2 130.8C2482.3 147.7 2404.7 181.3 2327.2 179C2249.7 176.7 2172.3 138.3 2094.8 143.2C2017.3 148 1939.7 196 1862 212.8C1784.3 229.7 1706.7 215.3 1629 205.7C1551.3 196 1473.7 191 1396.2 207.7C1318.7 224.3 1241.3 262.7 1163.8 267.5C1086.3 272.3 1008.7 243.7 931 217.3C853.3 191 775.7 167 698 169.3C620.3 171.7 542.7 200.3 465.2 214.7C387.7 229 310.3 229 232.8 214.7C155.3 200.3 77.7 171.7 38.8 157.3L0 143Z" fill="#112e20"></path><path d="M0 404L38.8 420.8C77.7 437.7 155.3 471.3 232.8 512.2C310.3 553 387.7 601 465.2 622.7C542.7 644.3 620.3 639.7 698 646.8C775.7 654 853.3 673 931 692.2C1008.7 711.3 1086.3 730.7 1163.8 701.8C1241.3 673 1318.7 596 1396.2 550.3C1473.7 504.7 1551.3 490.3 1629 497.7C1706.7 505 1784.3 534 1862 560.5C1939.7 587 2017.3 611 2094.8 632.5C2172.3 654 2249.7 673 2327.2 653.7C2404.7 634.3 2482.3 576.7 2521.2 547.8L2560 519L2560 388L2521.2 416.8C2482.3 445.7 2404.7 503.3 2327.2 508.2C2249.7 513 2172.3 465 2094.8 450.5C2017.3 436 1939.7 455 1862 443C1784.3 431 1706.7 388 1629 380.8C1551.3 373.7 1473.7 402.3 1396.2 455C1318.7 507.7 1241.3 584.3 1163.8 591.5C1086.3 598.7 1008.7 536.3 931 493.2C853.3 450 775.7 426 698 435.7C620.3 445.3 542.7 488.7 465.2 483.8C387.7 479 310.3 426 232.8 390C155.3 354 77.7 335 38.8 325.5L0 316Z" fill="#123524"></path><path d="M0 980L38.8 992C77.7 1004 155.3 1028 232.8 1066.5C310.3 1105 387.7 1158 465.2 1150.8C542.7 1143.7 620.3 1076.3 698 1073.8C775.7 1071.3 853.3 1133.7 931 1138.5C1008.7 1143.3 1086.3 1090.7 1163.8 1037.8C1241.3 985 1318.7 932 1396.2 932C1473.7 932 1551.3 985 1629 980.3C1706.7 975.7 1784.3 913.3 1862 886.8C1939.7 860.3 2017.3 869.7 2094.8 922.3C2172.3 975 2249.7 1071 2327.2 1090.3C2404.7 1109.7 2482.3 1052.3 2521.2 1023.7L2560 995L2560 517L2521.2 545.8C2482.3 574.7 2404.7 632.3 2327.2 651.7C2249.7 671 2172.3 652 2094.8 630.5C2017.3 609 1939.7 585 1862 558.5C1784.3 532 1706.7 503 1629 495.7C1551.3 488.3 1473.7 502.7 1396.2 548.3C1318.7 594 1241.3 671 1163.8 699.8C1086.3 728.7 1008.7 709.3 931 690.2C853.3 671 775.7 652 698 644.8C620.3 637.7 542.7 642.3 465.2 620.7C387.7 599 310.3 551 232.8 510.2C155.3 469.3 77.7 435.7 38.8 418.8L0 402Z" fill="#1e4b35"></path><path d="M0 1441L38.8 1441C77.7 1441 155.3 1441 232.8 1441C310.3 1441 387.7 1441 465.2 1441C542.7 1441 620.3 1441 698 1441C775.7 1441 853.3 1441 931 1441C1008.7 1441 1086.3 1441 1163.8 1441C1241.3 1441 1318.7 1441 1396.2 1441C1473.7 1441 1551.3 1441 1629 1441C1706.7 1441 1784.3 1441 1862 1441C1939.7 1441 2017.3 1441 2094.8 1441C2172.3 1441 2249.7 1441 2327.2 1441C2404.7 1441 2482.3 1441 2521.2 1441L2560 1441L2560 993L2521.2 1021.7C2482.3 1050.3 2404.7 1107.7 2327.2 1088.3C2249.7 1069 2172.3 973 2094.8 920.3C2017.3 867.7 1939.7 858.3 1862 884.8C1784.3 911.3 1706.7 973.7 1629 978.3C1551.3 983 1473.7 930 1396.2 930C1318.7 930 1241.3 983 1163.8 1035.8C1086.3 1088.7 1008.7 1141.3 931 1136.5C853.3 1131.7 775.7 1069.3 698 1071.8C620.3 1074.3 542.7 1141.7 465.2 1148.8C387.7 1156 310.3 1103 232.8 1064.5C155.3 1026 77.7 1002 38.8 990L0 978Z" fill="#2b6347"></path></svg>