<svg id="visual" viewBox="0 0 2560 1440" width="2560" height="1440" xmlns="http://www.w3.org/2000/svg" xmlns:xlink="http://www.w3.org/1999/xlink" version="1.1"><path d="M0 188L38.8 212C77.7 236 155.3 284 232.8 339.2C310.3 394.3 387.7 456.7 465.2 463.8C542.7 471 620.3 423 698 396.7C775.7 370.3 853.3 365.7 931 375.3C1008.7 385 1086.3 409 1163.8 394.7C1241.3 380.3 1318.7 327.7 1396.2 310.8C1473.7 294 1551.3 313 1629 303.3C1706.7 293.7 1784.3 255.3 1862 248.2C1939.7 241 2017.3 265 2094.8 277C2172.3 289 2249.7 289 2327.2 339.3C2404.7 389.7 2482.3 490.3 2521.2 540.7L2560 591L2560 0L2521.2 0C2482.3 0 2404.7 0 2327.2 0C2249.7 0 2172.3 0 2094.8 0C2017.3 0 1939.7 0 1862 0C1784.3 0 1706.7 0 1629 0C1551.3 0 1473.7 0 1396.2 0C1318.7 0 1241.3 0 1163.8 0C1086.3 0 1008.7 0 931 0C853.3 0 775.7 0 698 0C620.3 0 542.7 0 465.2 0C387.7 0 310.3 0 232.8 0C155.3 0 77.7 0 38.8 0L0 0Z" fill="#2b6347"></path><path d="M0 462L38.8 483.5C77.7 505 155.3 548 232.8 600.8C310.3 653.7 387.7 716.3 465.2 714C542.7 711.7 620.3 644.3 698 591.5C775.7 538.7 853.3 500.3 931 502.7C1008.7 505 1086.3 548 1163.8 552.8C1241.3 557.7 1318.7 524.3 1396.2 500.3C1473.7 476.3 1551.3 461.7 1629 444.8C1706.7 428 1784.3 409 1862 416.3C1939.7 423.7 2017.3 457.3 2094.8 486.2C2172.3 515 2249.7 539 2327.2 575C2404.7 611 2482.3 659 2521.2 683L2560 707L2560 589L2521.2 538.7C2482.3 488.3 2404.7 387.7 2327.2 337.3C2249.7 287 2172.3 287 2094.8 275C2017.3 263 1939.7 239 1862 246.2C1784.3 253.3 1706.7 291.7 1629 301.3C1551.3 311 1473.7 292 1396.2 308.8C1318.7 325.7 1241.3 378.3 1163.8 392.7C1086.3 407 1008.7 383 931 373.3C853.3 363.7 775.7 368.3 698 394.7C620.3 421 542.7 469 465.2 461.8C387.7 454.7 310.3 392.3 232.8 337.2C155.3 282 77.7 234 38.8 210L0 186Z" fill="#1e4b35"></path><path d="M0 937L38.8 951.3C77.7 965.7 155.3 994.3 232.8 1025.5C310.3 1056.7 387.7 1090.3 465.2 1071.2C542.7 1052 620.3 980 698 987.2C775.7 994.3 853.3 1080.7 931 1073.5C1008.7 1066.3 1086.3 965.7 1163.8 965.7C1241.3 965.7 1318.7 1066.3 1396.2 1107.2C1473.7 1148 1551.3 1129 1629 1090.7C1706.7 1052.3 1784.3 994.7 1862 980.2C1939.7 965.7 2017.3 994.3 2094.8 1016C2172.3 1037.7 2249.7 1052.3 2327.2 1052.3C2404.7 1052.3 2482.3 1037.7 2521.2 1030.3L2560 1023L2560 705L2521.2 681C2482.3 657 2404.7 609 2327.2 573C2249.7 537 2172.3 513 2094.8 484.2C2017.3 455.3 1939.7 421.7 1862 414.3C1784.3 407 1706.7 426 1629 442.8C1551.3 459.7 1473.7 474.3 1396.2 498.3C1318.7 522.3 1241.3 555.7 1163.8 550.8C1086.3 546 1008.7 503 931 500.7C853.3 498.3 775.7 536.7 698 589.5C620.3 642.3 542.7 709.7 465.2 712C387.7 714.3 310.3 651.7 232.8 598.8C155.3 546 77.7 503 38.8 481.5L0 460Z" fill="#123524"></path><path d="M0 1081L38.8 1085.8C77.7 1090.7 155.3 1100.3 232.8 1134C310.3 1167.7 387.7 1225.3 465.2 1225.3C542.7 1225.3 620.3 1167.7 698 1162.8C775.7 1158 853.3 1206 931 1201.2C1008.7 1196.3 1086.3 1138.7 1163.8 1145.8C1241.3 1153 1318.7 1225 1396.2 1246.7C1473.7 1268.3 1551.3 1239.7 1629 1198.8C1706.7 1158 1784.3 1105 1862 1095.3C1939.7 1085.7 2017.3 1119.3 2094.8 1160.2C2172.3 1201 2249.7 1249 2327.2 1265.8C2404.7 1282.7 2482.3 1268.3 2521.2 1261.2L2560 1254L2560 1021L2521.2 1028.3C2482.3 1035.7 2404.7 1050.3 2327.2 1050.3C2249.7 1050.3 2172.3 1035.7 2094.8 1014C2017.3 992.3 1939.7 963.7 1862 978.2C1784.3 992.7 1706.7 1050.3 1629 1088.7C1551.3 1127 1473.7 1146 1396.2 1105.2C1318.7 1064.3 1241.3 963.7 1163.8 963.7C1086.3 963.7 1008.7 1064.3 931 1071.5C853.3 1078.7 775.7 992.3 698 985.2C620.3 978 542.7 1050 465.2 1069.2C387.7 1088.3 310.3 1054.7 232.8 1023.5C155.3 992.3 77.7 963.7 38.8 949.3L0 935Z" fill="#112e20"></path><path d="M0 1441L38.8 1441C77.7 1441 155.3 1441 232.8 1441C310.3 1441 387.7 1441 465.2 1441C542.7 1441 620.3 1441 698 1441C775.7 1441 853.3 1441 931 1441C1008.7 1441 1086.3 1441 1163.8 1441C1241.3 1441 1318.7 1441 1396.2 1441C1473.7 1441 1551.3 1441 1629 1441C1706.7 1441 1784.3 1441 1862 1441C1939.7 1441 2017.3 1441 2094.8 1441C2172.3 1441 2249.7 1441 2327.2 1441C2404.7 1441 2482.3 1441 2521.2 1441L2560 1441L2560 1252L2521.2 1259.2C2482.3 1266.3 2404.7 1280.7 2327.2 1263.8C2249.7 1247 2172.3 1199 2094.8 1158.2C2017.3 1117.3 1939.7 1083.7 1862 1093.3C1784.3 1103 1706.7 1156 1629 1196.8C1551.3 1237.7 1473.7 1266.3 1396.2 1244.7C1318.7 1223 1241.3 1151 1163.8 1143.8C1086.3 1136.7 1008.7 1194.3 931 1199.2C853.3 1204 775.7 1156 698 1160.8C620.3 1165.7 542.7 1223.3 465.2 1223.3C387.7 1223.3 310.3 1165.7 232.8 1132C155.3 1098.3 77.7 1088.7 38.8 1083.8L0 1079Z" fill="#10281c"></path></svg>