<svg id="visual" viewBox="0 0 2560 1440" width="2560" height="1440" xmlns="http://www.w3.org/2000/svg" xmlns:xlink="http://www.w3.org/1999/xlink" version="1.1"><path d="M0 491L85.3 495.7C170.7 500.3 341.3 509.7 512 497.7C682.7 485.7 853.3 452.3 1024 423.7C1194.7 395 1365.3 371 1536 373.3C1706.7 375.7 1877.3 404.3 2048 397C2218.7 389.7 2389.3 346.3 2474.7 324.7L2560 303L2560 0L2474.7 0C2389.3 0 2218.7 0 2048 0C1877.3 0 1706.7 0 1536 0C1365.3 0 1194.7 0 1024 0C853.3 0 682.7 0 512 0C341.3 0 170.7 0 85.3 0L0 0Z" fill="#5aa062"></path><path d="M0 649L85.3 644.2C170.7 639.3 341.3 629.7 512 608C682.7 586.3 853.3 552.7 1024 526.3C1194.7 500 1365.3 481 1536 493C1706.7 505 1877.3 548 2048 550.3C2218.7 552.7 2389.3 514.3 2474.7 495.2L2560 476L2560 301L2474.7 322.7C2389.3 344.3 2218.7 387.7 2048 395C1877.3 402.3 1706.7 373.7 1536 371.3C1365.3 369 1194.7 393 1024 421.7C853.3 450.3 682.7 483.7 512 495.7C341.3 507.7 170.7 498.3 85.3 493.7L0 489Z" fill="#499352"></path><path d="M0 937L85.3 927.3C170.7 917.7 341.3 898.3 512 886.3C682.7 874.3 853.3 869.7 1024 872.2C1194.7 874.7 1365.3 884.3 1536 889.2C1706.7 894 1877.3 894 2048 906C2218.7 918 2389.3 942 2474.7 954L2560 966L2560 474L2474.7 493.2C2389.3 512.3 2218.7 550.7 2048 548.3C1877.3 546 1706.7 503 1536 491C1365.3 479 1194.7 498 1024 524.3C853.3 550.7 682.7 584.3 512 606C341.3 627.7 170.7 637.3 85.3 642.2L0 647Z" fill="#378641"></path><path d="M0 1081L85.3 1071.3C170.7 1061.7 341.3 1042.3 512 1040C682.7 1037.7 853.3 1052.3 1024 1050C1194.7 1047.7 1365.3 1028.3 1536 1023.5C1706.7 1018.7 1877.3 1028.3 2048 1038C2218.7 1047.7 2389.3 1057.3 2474.7 1062.2L2560 1067L2560 964L2474.7 952C2389.3 940 2218.7 916 2048 904C1877.3 892 1706.7 892 1536 887.2C1365.3 882.3 1194.7 872.7 1024 870.2C853.3 867.7 682.7 872.3 512 884.3C341.3 896.3 170.7 915.7 85.3 925.3L0 935Z" fill="#2a7936"></path><path d="M0 1254L85.3 1251.5C170.7 1249 341.3 1244 512 1246.3C682.7 1248.7 853.3 1258.3 1024 1268C1194.7 1277.7 1365.3 1287.3 1536 1294.5C1706.7 1301.7 1877.3 1306.3 2048 1304C2218.7 1301.7 2389.3 1292.3 2474.7 1287.7L2560 1283L2560 1065L2474.7 1060.2C2389.3 1055.3 2218.7 1045.7 2048 1036C1877.3 1026.3 1706.7 1016.7 1536 1021.5C1365.3 1026.3 1194.7 1045.7 1024 1048C853.3 1050.3 682.7 1035.7 512 1038C341.3 1040.3 170.7 1059.7 85.3 1069.3L0 1079Z" fill="#256b31"></path><path d="M0 1441L85.3 1441C170.7 1441 341.3 1441 512 1441C682.7 1441 853.3 1441 1024 1441C1194.7 1441 1365.3 1441 1536 1441C1706.7 1441 1877.3 1441 2048 1441C2218.7 1441 2389.3 1441 2474.7 1441L2560 1441L2560 1281L2474.7 1285.7C2389.3 1290.3 2218.7 1299.7 2048 1302C1877.3 1304.3 1706.7 1299.7 1536 1292.5C1365.3 1285.3 1194.7 1275.7 1024 1266C853.3 1256.3 682.7 1246.7 512 1244.3C341.3 1242 170.7 1247 85.3 1249.5L0 1252Z" fill="#205e2b"></path></svg>